<svg width="25" height="25" viewBox="0 0 25 25" fill="none" xmlns="http://www.w3.org/2000/svg">
<path d="M12.63 24.4301C5.97997 24.4201 0.589966 19.0201 0.589966 12.3801C0.589966 5.73006 6.00997 0.320021 12.66 0.340021C19.31 0.360021 24.7 5.76008 24.69 12.4001C24.67 19.0501 19.27 24.4401 12.63 24.4301ZM15.87 18.6701C16.34 18.6701 16.82 18.5801 17.29 18.3701C17.93 18.0801 18.39 17.58 18.85 17.08C19.06 16.85 19.02 16.59 18.77 16.33C18.07 15.62 17.37 14.92 16.66 14.22C16.35 13.91 16.08 13.91 15.77 14.22C15.39 14.6 15.01 14.9901 14.63 15.3701C14.17 15.8201 13.62 15.86 13.1 15.49C11.76 14.53 10.59 13.39 9.59997 12.07C9.15997 11.49 9.19997 10.97 9.70997 10.45C10.1 10.06 10.5 9.67007 10.89 9.27007C11.16 8.99007 11.17 8.72001 10.9 8.45001C10.18 7.72001 9.45997 7.00009 8.73997 6.29009C8.46997 6.02009 8.19997 6.03009 7.91997 6.29009C7.68997 6.51009 7.46997 6.73002 7.24997 6.96002C6.61997 7.61002 6.29997 8.38009 6.29997 9.29009C6.29997 9.91009 6.50997 10.4901 6.76997 11.0501C8.17997 14.1801 10.47 16.47 13.54 17.98C14.25 18.33 15.01 18.6101 15.87 18.6701Z" fill="white"/>
</svg>
