<svg width="200" height="65" viewBox="0 0 200 65" fill="none" xmlns="http://www.w3.org/2000/svg">
<path d="M200 0H0V65H200V0Z" fill="black"/>
<path d="M67.41 36.33C64.91 34.19 64.19 31.56 64.19 28.82C64.19 27.08 64.78 23.92 67.36 21.75C69.56 19.89 72.11 19.12 75.81 19.12C77.27 19.12 78.44 19.27 79.44 19.43C80.59 19.61 81.2 19.74 81.97 19.76C82.25 19.79 82.25 19.94 82.25 20.09C82.25 20.29 82.17 20.91 82.12 21.78C82.07 22.62 82.09 24.13 82.04 24.77C82.01 25.15 81.96 25.38 81.73 25.38C81.53 25.38 81.45 25.2 81.42 24.84C81.39 24.28 81.29 23.26 80.45 22.34C79.56 21.4 77.77 20.73 75.29 20.73C73.78 20.73 72.53 21.09 71.54 21.96C69.98 23.31 69.29 25.69 69.29 28.42C69.29 33.68 72.15 37.2 76.44 37.2C78.53 37.2 79.84 37.02 80.83 35.9C81.19 35.52 81.47 34.96 81.67 34.19C81.8 33.65 81.87 33.48 82.08 33.48C82.26 33.48 82.28 33.74 82.28 33.94C82.28 34.37 81.97 36.6 81.72 37.82C81.67 38.2 81.49 38.41 81.06 38.56C80.04 38.97 78.3 39.15 76.67 39.15C73.35 39.14 70.09 38.58 67.41 36.33Z" fill="url(#paint0_linear_1_99)"/>
<path d="M99.88 27.35C99.96 27.35 100.03 27.3 100.03 27.17V26.63C100.03 22.67 100.03 22.24 99.98 21.42C99.93 20.68 99.72 20.25 98.88 20.07C98.68 20.04 98.29 20.02 97.99 19.99C97.63 19.99 97.5 19.84 97.5 19.73C97.5 19.58 97.63 19.47 98.01 19.47C99.49 19.47 101.79 19.55 102.04 19.55C102.27 19.55 105.21 19.47 106.3 19.47C106.68 19.47 106.81 19.57 106.81 19.73C106.81 19.86 106.68 19.99 106.43 19.99C106 20.04 105.84 20.04 105.54 20.09C104.88 20.19 104.67 20.63 104.6 21.44C104.55 22.26 104.55 22.92 104.55 26.88V31.37C104.55 33.8 104.55 35.68 104.68 36.76C104.76 37.6 104.96 38.04 105.73 38.16C106.09 38.21 106.6 38.24 106.85 38.26C107.16 38.26 107.28 38.39 107.28 38.52C107.28 38.7 107.08 38.78 106.77 38.78C105.01 38.78 102.43 38.7 101.97 38.7C101.56 38.7 99.57 38.78 98.32 38.78C97.86 38.78 97.76 38.65 97.76 38.5C97.76 38.37 97.91 38.27 98.25 38.27C98.51 38.24 98.81 38.22 99.04 38.17C99.65 38.04 99.81 37.56 99.88 36.74C99.98 35.67 100.03 34.06 100.03 31.63V29.56C100.03 29.46 99.95 29.41 99.88 29.41H91.91C91.83 29.41 91.76 29.44 91.76 29.56V32.22C91.76 34.65 91.79 35.69 91.89 36.79C91.97 37.53 92.2 38.02 92.96 38.14C93.5 38.22 93.75 38.24 94.03 38.27C94.31 38.27 94.52 38.35 94.52 38.53C94.52 38.66 94.39 38.79 94.01 38.79C92.55 38.79 89.54 38.71 89.29 38.71C89.06 38.71 86.38 38.79 85.56 38.79C85.28 38.79 85 38.74 85 38.56C85 38.38 85.1 38.28 85.43 38.28C85.74 38.25 85.89 38.23 86.22 38.18C86.83 38.1 87.06 37.44 87.11 36.67C87.19 35.6 87.24 33.81 87.24 31.38V26.94C87.24 22.98 87.21 22.4 87.16 21.58C87.11 20.69 86.83 20.2 85.93 20.07C85.62 20.02 85.5 20.02 85.22 19.99C84.76 19.96 84.71 19.84 84.71 19.71C84.71 19.53 84.99 19.48 85.27 19.48C86.75 19.48 88.72 19.56 89.3 19.56C90.27 19.56 92.41 19.48 93.51 19.48C93.97 19.48 94.05 19.58 94.05 19.74C94.05 19.87 93.9 20 93.59 20C93.28 20.03 92.95 20.05 92.7 20.1C92.01 20.25 91.88 20.84 91.83 21.58C91.75 22.4 91.75 23.44 91.75 26.64V27.18C91.75 27.31 91.83 27.36 91.9 27.36H99.88V27.35Z" fill="url(#paint1_linear_1_99)"/>
<path d="M113.79 33.5C113.66 33.5 113.61 33.55 113.56 33.68L112.77 35.77C112.51 36.43 112.36 37.1 112.36 37.4C112.36 37.89 112.59 38.11 113.13 38.17C113.41 38.22 113.82 38.25 114.02 38.27C114.4 38.27 114.48 38.4 114.48 38.53C114.48 38.73 114.28 38.79 113.94 38.79C112.79 38.79 111.92 38.71 110.57 38.71C110.29 38.71 108.6 38.79 107.33 38.79C106.97 38.79 106.82 38.69 106.82 38.53C106.82 38.33 107 38.27 107.31 38.27C107.62 38.24 107.87 38.22 108.13 38.17C109.02 37.99 109.53 37.2 110.07 35.97L116.89 20.55C117.38 19.45 117.66 19.07 117.94 19.07C118.2 19.07 118.43 19.43 118.86 20.35C119.52 21.78 123.81 31.56 125.55 35.44C126.42 37.43 126.98 38.04 127.87 38.17C128.15 38.25 128.46 38.25 128.69 38.27C129.02 38.27 129.18 38.37 129.18 38.53C129.18 38.71 129 38.79 128.52 38.79C126.02 38.79 123.11 38.74 121.47 38.71C121.06 38.71 120.91 38.63 120.91 38.48C120.91 38.33 121.04 38.22 121.27 38.17C121.55 38.12 121.65 37.94 121.58 37.71L119.87 33.65C119.84 33.55 119.74 33.5 119.67 33.5H113.79V33.5ZM118.9 31.46C119.05 31.46 119.05 31.38 119.03 31.33L116.78 25.87C116.7 25.69 116.65 25.74 116.6 25.87L114.43 31.33C114.4 31.41 114.46 31.46 114.53 31.46H118.9Z" fill="url(#paint2_linear_1_99)"/>
<path d="M131.41 26.89C131.41 23.14 131.38 22.42 131.36 21.6C131.33 20.55 130.98 20.14 130.24 20.07C129.93 20.04 129.58 20.02 129.3 19.99C128.92 19.96 128.84 19.86 128.84 19.73C128.84 19.53 129.04 19.47 129.35 19.47C130.91 19.47 132.18 19.55 133.44 19.55C135.12 19.55 136.63 19.47 137.63 19.47C143.02 19.47 144.04 21.97 144.04 23.4C144.04 25.47 142.61 26.8 140.93 27.66C143.61 28.48 145.88 30.11 145.88 33.2C145.88 36.03 143.22 38.84 138.14 38.84C137.2 38.84 134.18 38.69 133.42 38.69C132.3 38.69 131.1 38.77 129.72 38.77C129.36 38.77 129.18 38.69 129.18 38.51C129.18 38.33 129.31 38.25 129.69 38.25C130.02 38.22 130.25 38.2 130.46 38.15C130.92 38.07 131.2 37.69 131.28 36.75C131.38 35.35 131.43 33.86 131.43 30.65V26.89H131.41ZM135.83 31.23C135.83 32.46 135.8 34.24 135.88 35.54C135.93 36.36 136.03 36.69 136.54 36.94C137.1 37.27 137.71 37.35 138.22 37.35C139.55 37.35 141.13 36.43 141.13 33.88C141.13 32.55 140.8 31.05 139.62 29.95C138.93 29.29 138.04 29.03 137.25 28.98C136.84 28.95 136.23 28.95 135.97 28.98C135.87 28.98 135.82 29.03 135.82 29.16V31.23H135.83ZM135.83 27.17C135.83 27.37 135.93 27.4 136.06 27.43C136.47 27.51 137.31 27.53 137.67 27.53C138.26 27.53 138.84 27.43 139.2 27.12C139.74 26.69 140.04 25.79 140.04 24.69C140.04 22.62 139.02 20.89 137 20.89C136.59 20.89 136.29 20.94 136.08 21.02C135.93 21.07 135.82 21.12 135.82 21.48V27.17H135.83Z" fill="url(#paint3_linear_1_99)"/>
<path d="M148.72 29.21C148.72 24.1 152.14 19.12 159.65 19.12C166.14 19.12 170.19 23.46 170.19 28.64C170.19 34.59 166.16 39.13 159.47 39.13C151.94 39.14 148.72 33.73 148.72 29.21ZM165.09 29.77C165.09 25.53 163.33 20.71 158.81 20.71C156.46 20.71 153.83 22.01 153.83 28.06C153.83 32.89 155.85 37.51 160.24 37.51C161.82 37.51 165.09 36.82 165.09 29.77Z" fill="url(#paint4_linear_1_99)"/>
<path d="M175.17 26.89C175.17 23.14 175.17 22.42 175.12 21.6C175.07 20.86 174.94 20.17 173.97 20.07C173.77 20.04 173.51 20.04 173.03 19.99C172.65 19.96 172.54 19.84 172.54 19.71C172.54 19.56 172.69 19.48 173.13 19.48C173.77 19.48 176.12 19.56 177.24 19.56C178.08 19.56 179.23 19.53 181.38 19.51C185.75 19.54 189.17 20.1 191.49 22.47C192.79 23.77 193.94 25.92 193.94 28.96C193.94 32.05 192.59 34.58 191.13 35.96C189.88 37.24 187.53 39 182.4 39C181.38 39 180.51 38.97 179.67 38.9C178.67 38.8 177.63 38.72 177.14 38.72C176.53 38.72 175.91 38.72 175.2 38.75C174.49 38.78 174.15 38.8 173.44 38.8C173.01 38.8 172.93 38.67 172.93 38.54C172.93 38.36 173.13 38.28 173.42 38.28C173.75 38.25 173.93 38.23 174.21 38.18C174.72 38.1 174.98 37.62 175.05 36.62C175.13 35.39 175.18 33.58 175.18 31.39V26.89H175.17ZM179.69 29.75C179.69 32.46 179.72 34.22 179.74 34.7C179.79 35.75 179.89 36.26 180.17 36.54C180.63 37.1 181.68 37.46 182.8 37.46C184.59 37.46 186.09 37.08 187.45 35.67C188.78 34.34 189.11 32.07 189.11 29.67C189.11 27.35 188.27 25.28 187.2 23.82C185.44 21.52 183.01 21.04 181.33 21.04C180.77 21.04 180.18 21.12 179.95 21.24C179.75 21.34 179.72 21.47 179.72 21.7C179.75 22.57 179.69 24.41 179.69 26.47V29.75Z" fill="url(#paint5_linear_1_99)"/>
<path d="M65.95 41.51C66.39 41.51 66.76 41.65 67.06 41.93C67.35 42.21 67.5 42.55 67.5 42.96C67.5 43.37 67.35 43.72 67.06 43.99C66.77 44.27 66.4 44.41 65.95 44.41H65.06V45.83H64.13V41.5H65.95V41.51ZM65.05 42.34V43.57H65.91C66.09 43.57 66.25 43.51 66.37 43.39C66.49 43.27 66.56 43.13 66.56 42.95C66.56 42.78 66.5 42.63 66.37 42.51C66.25 42.39 66.09 42.33 65.91 42.33H65.05V42.34Z" fill="url(#paint6_linear_1_99)"/>
<path d="M69.57 41.51H71.49C71.92 41.51 72.27 41.65 72.55 41.92C72.83 42.19 72.97 42.53 72.97 42.93C72.97 43.1 72.94 43.26 72.89 43.42C72.84 43.57 72.77 43.69 72.7 43.78C72.63 43.87 72.55 43.95 72.48 44.02C72.4 44.09 72.34 44.13 72.28 44.16L72.2 44.2L73.13 45.84H72.14L71.31 44.33H70.51V45.84H69.58V41.51H69.57ZM71.87 42.51C71.76 42.4 71.62 42.34 71.45 42.34H70.49V43.48H71.45C71.62 43.48 71.76 43.43 71.87 43.32C71.98 43.21 72.04 43.08 72.04 42.92C72.04 42.76 71.98 42.62 71.87 42.51Z" fill="url(#paint7_linear_1_99)"/>
<path d="M76.06 44.81L75.69 45.83H74.7L76.4 41.5H77.39L79.09 45.83H78.1L77.73 44.81H76.06ZM76.89 42.59L76.36 44.01H77.41L76.89 42.59Z" fill="url(#paint8_linear_1_99)"/>
<path d="M81.96 43.36L82.98 41.51H83.97L82.43 44.29V45.83H81.5V44.29L79.96 41.51H80.95L81.96 43.36Z" fill="url(#paint9_linear_1_99)"/>
<path d="M89.08 45V45.83H85.83V41.5H89.01V42.34H86.76V43.21H88.52V44.04H86.76V45H89.08Z" fill="url(#paint10_linear_1_99)"/>
<path d="M91.18 41.51H93.1C93.53 41.51 93.88 41.65 94.16 41.92C94.44 42.19 94.58 42.53 94.58 42.93C94.58 43.1 94.55 43.26 94.5 43.42C94.45 43.57 94.38 43.69 94.31 43.78C94.24 43.87 94.16 43.95 94.09 44.02C94.01 44.09 93.95 44.13 93.89 44.16L93.81 44.2L94.74 45.84H93.75L92.92 44.33H92.12V45.84H91.19V41.51H91.18ZM93.48 42.51C93.37 42.4 93.23 42.34 93.06 42.34H92.1V43.48H93.06C93.23 43.48 93.37 43.43 93.48 43.32C93.59 43.21 93.65 43.08 93.65 42.92C93.65 42.76 93.6 42.62 93.48 42.51Z" fill="url(#paint11_linear_1_99)"/>
<path d="M100.17 44.81L99.8 45.83H98.81L100.51 41.5H101.5L103.2 45.83H102.21L101.84 44.81H100.17ZM101.01 42.59L100.48 44.01H101.53L101.01 42.59Z" fill="url(#paint12_linear_1_99)"/>
<path d="M108.92 41.51V45.84H108.12L105.99 43.09V45.84H105.06V41.51H105.87L108 44.26V41.51H108.92Z" fill="url(#paint13_linear_1_99)"/>
<path d="M112.88 41.51C113.51 41.51 114.04 41.72 114.46 42.14C114.89 42.56 115.1 43.07 115.1 43.68C115.1 44.29 114.89 44.8 114.46 45.22C114.03 45.64 113.51 45.85 112.88 45.85H111.27V41.52H112.88V41.51ZM112.2 42.34V45H112.88C113.24 45 113.54 44.87 113.8 44.61C114.05 44.35 114.18 44.04 114.18 43.67C114.18 43.3 114.06 42.98 113.81 42.73C113.56 42.47 113.25 42.34 112.88 42.34H112.2Z" fill="url(#paint14_linear_1_99)"/>
<path d="M123.7 43.49V45.09C123.68 45.11 123.66 45.14 123.62 45.18C123.58 45.22 123.51 45.29 123.39 45.38C123.27 45.47 123.14 45.56 123.01 45.63C122.88 45.7 122.7 45.77 122.49 45.83C122.27 45.89 122.05 45.92 121.82 45.92C121.16 45.92 120.6 45.7 120.15 45.26C119.7 44.82 119.47 44.29 119.47 43.67C119.47 43.05 119.7 42.52 120.15 42.08C120.6 41.64 121.16 41.42 121.82 41.42C122.05 41.42 122.26 41.45 122.47 41.51C122.68 41.57 122.84 41.64 122.98 41.73C123.11 41.81 123.23 41.9 123.33 41.98C123.43 42.06 123.5 42.14 123.55 42.19L123.62 42.28L123.03 42.87C123.02 42.85 123 42.83 122.98 42.8C122.96 42.77 122.91 42.72 122.84 42.65C122.77 42.58 122.69 42.52 122.6 42.46C122.51 42.41 122.4 42.36 122.26 42.31C122.12 42.26 121.98 42.24 121.83 42.24C121.43 42.24 121.09 42.38 120.82 42.65C120.55 42.92 120.41 43.26 120.41 43.66C120.41 44.06 120.55 44.4 120.82 44.67C121.09 44.94 121.43 45.08 121.83 45.08C122.02 45.08 122.2 45.05 122.36 44.99C122.52 44.93 122.63 44.87 122.69 44.82L122.78 44.74V44.15H122V43.47H123.7V43.49Z" fill="url(#paint15_linear_1_99)"/>
<path d="M126.39 42.08C126.84 41.64 127.4 41.42 128.06 41.42C128.72 41.42 129.27 41.64 129.73 42.08C130.18 42.52 130.41 43.05 130.41 43.67C130.41 44.29 130.18 44.82 129.73 45.26C129.28 45.7 128.72 45.92 128.06 45.92C127.4 45.92 126.85 45.7 126.39 45.26C125.94 44.82 125.71 44.29 125.71 43.67C125.71 43.05 125.94 42.52 126.39 42.08ZM127.07 44.68C127.34 44.95 127.67 45.09 128.05 45.09C128.43 45.09 128.77 44.95 129.03 44.68C129.3 44.41 129.43 44.07 129.43 43.67C129.43 43.27 129.3 42.93 129.03 42.66C128.76 42.39 128.43 42.25 128.05 42.25C127.67 42.25 127.33 42.39 127.07 42.66C126.8 42.93 126.67 43.27 126.67 43.67C126.67 44.07 126.8 44.41 127.07 44.68Z" fill="url(#paint16_linear_1_99)"/>
<path d="M134.18 44.22C134.03 44.13 133.86 44.06 133.65 44C133.44 43.94 133.23 43.87 133.02 43.79C132.81 43.71 132.63 43.58 132.49 43.39C132.34 43.2 132.27 42.97 132.27 42.69C132.27 42.34 132.41 42.04 132.69 41.79C132.97 41.54 133.34 41.42 133.78 41.42C133.96 41.42 134.13 41.44 134.29 41.48C134.45 41.52 134.59 41.57 134.7 41.62C134.81 41.68 134.9 41.73 134.98 41.79C135.06 41.85 135.12 41.9 135.15 41.94L135.2 42L134.64 42.59C134.62 42.56 134.58 42.53 134.54 42.49C134.5 42.45 134.41 42.39 134.27 42.33C134.13 42.26 133.99 42.23 133.84 42.23C133.66 42.23 133.52 42.28 133.41 42.37C133.3 42.46 133.25 42.57 133.25 42.7C133.25 42.85 133.32 42.96 133.47 43.05C133.62 43.14 133.79 43.21 134 43.27C134.21 43.33 134.42 43.4 134.63 43.48C134.84 43.56 135.02 43.69 135.17 43.88C135.32 44.07 135.39 44.3 135.39 44.58C135.39 44.98 135.24 45.31 134.95 45.56C134.66 45.81 134.26 45.94 133.75 45.94C133.55 45.94 133.35 45.92 133.17 45.87C132.98 45.82 132.83 45.76 132.71 45.69C132.59 45.62 132.48 45.55 132.39 45.48C132.3 45.41 132.23 45.35 132.19 45.3L132.12 45.22L132.68 44.67C132.71 44.7 132.75 44.74 132.8 44.8C132.85 44.85 132.97 44.92 133.14 45.01C133.32 45.1 133.5 45.14 133.69 45.14C133.91 45.14 134.09 45.09 134.21 44.98C134.34 44.88 134.4 44.74 134.4 44.58C134.4 44.42 134.33 44.3 134.18 44.22Z" fill="url(#paint17_linear_1_99)"/>
<path d="M139.28 41.51C139.72 41.51 140.09 41.65 140.39 41.93C140.68 42.21 140.83 42.55 140.83 42.96C140.83 43.37 140.68 43.72 140.39 43.99C140.1 44.27 139.73 44.41 139.28 44.41H138.39V45.83H137.46V41.5H139.28V41.51ZM138.39 42.34V43.57H139.25C139.44 43.57 139.59 43.51 139.71 43.39C139.83 43.27 139.9 43.13 139.9 42.95C139.9 42.78 139.84 42.63 139.71 42.51C139.59 42.39 139.43 42.33 139.25 42.33H138.39V42.34Z" fill="url(#paint18_linear_1_99)"/>
<path d="M146.15 45V45.83H142.9V41.5H146.08V42.34H143.83V43.21H145.59V44.04H143.83V45H146.15Z" fill="url(#paint19_linear_1_99)"/>
<path d="M148.25 45.83V41.5H149.18V45H151.19V45.83H148.25Z" fill="url(#paint20_linear_1_99)"/>
<path d="M159.45 41.51H160.27V45.84H159.34V42.96L157.95 44.73L156.56 42.97V45.84H155.63V41.51H156.47L157.95 43.4L159.45 41.51Z" fill="url(#paint21_linear_1_99)"/>
<path d="M162.62 41.51H163.55V45.84H162.62V41.51Z" fill="url(#paint22_linear_1_99)"/>
<path d="M169.76 41.51V45.84H168.96L166.83 43.09V45.84H165.9V41.51H166.71L168.84 44.26V41.51H169.76Z" fill="url(#paint23_linear_1_99)"/>
<path d="M172.11 41.51H173.04V45.84H172.11V41.51Z" fill="url(#paint24_linear_1_99)"/>
<path d="M177.05 44.22C176.9 44.13 176.73 44.06 176.52 44C176.31 43.94 176.1 43.87 175.89 43.79C175.68 43.71 175.5 43.58 175.36 43.39C175.21 43.2 175.14 42.97 175.14 42.69C175.14 42.34 175.28 42.04 175.56 41.79C175.84 41.54 176.21 41.42 176.65 41.42C176.83 41.42 177 41.44 177.16 41.48C177.32 41.52 177.46 41.57 177.57 41.62C177.68 41.68 177.77 41.73 177.85 41.79C177.93 41.85 177.99 41.9 178.02 41.94L178.07 42L177.52 42.59C177.5 42.56 177.46 42.53 177.42 42.49C177.38 42.45 177.29 42.39 177.15 42.33C177.01 42.27 176.87 42.23 176.72 42.23C176.54 42.23 176.4 42.28 176.29 42.37C176.18 42.46 176.13 42.57 176.13 42.7C176.13 42.85 176.2 42.96 176.35 43.05C176.5 43.14 176.67 43.21 176.88 43.27C177.09 43.33 177.3 43.4 177.51 43.48C177.72 43.56 177.9 43.69 178.05 43.88C178.2 44.07 178.27 44.3 178.27 44.58C178.27 44.98 178.12 45.31 177.83 45.56C177.54 45.81 177.14 45.94 176.63 45.94C176.43 45.94 176.23 45.92 176.05 45.87C175.86 45.82 175.71 45.76 175.59 45.69C175.47 45.62 175.36 45.55 175.27 45.48C175.18 45.41 175.11 45.35 175.07 45.3L175 45.22L175.56 44.67C175.59 44.7 175.63 44.74 175.68 44.8C175.73 44.85 175.85 44.92 176.02 45.01C176.2 45.1 176.38 45.14 176.58 45.14C176.8 45.14 176.98 45.09 177.1 44.98C177.23 44.88 177.29 44.74 177.29 44.58C177.27 44.42 177.2 44.3 177.05 44.22Z" fill="url(#paint25_linear_1_99)"/>
<path d="M183.18 41.51V42.35H181.95V45.84H181.02V42.35H179.78V41.51H183.18Z" fill="url(#paint26_linear_1_99)"/>
<path d="M185.1 41.51H187.02C187.45 41.51 187.8 41.65 188.08 41.92C188.36 42.19 188.5 42.53 188.5 42.93C188.5 43.1 188.47 43.26 188.42 43.42C188.37 43.57 188.3 43.69 188.23 43.78C188.16 43.87 188.08 43.95 188.01 44.02C187.93 44.09 187.87 44.13 187.81 44.16L187.73 44.2L188.66 45.84H187.67L186.84 44.33H186.04V45.84H185.11V41.51H185.1ZM187.4 42.51C187.29 42.4 187.15 42.34 186.98 42.34H186.02V43.48H186.98C187.15 43.48 187.29 43.43 187.4 43.32C187.51 43.21 187.57 43.08 187.57 42.92C187.57 42.76 187.51 42.62 187.4 42.51Z" fill="url(#paint27_linear_1_99)"/>
<path d="M191.99 43.36L193.01 41.51H194L192.46 44.29V45.83H191.53V44.29L189.99 41.51H190.98L191.99 43.36Z" fill="url(#paint28_linear_1_99)"/>
<path d="M50.95 32.5L50.08 33.63L49.21 32.5L50.08 31.37L50.95 32.5Z" fill="#FFC000"/>
<path d="M31.79 26.72C32.52 29.52 32.13 31.74 31.33 33.43C31.5 33.32 31.69 33.22 31.88 33.14C31.98 33.1 32.08 33.07 32.19 33.05C32.28 32.68 32.35 32.3 32.41 31.89C32.41 31.89 32.4 32.33 32.32 33.02C32.55 32.98 32.79 32.96 33.03 32.95C33.13 32.95 33.22 32.97 33.32 33C33.34 32.74 33.36 32.48 33.37 32.21C33.44 30.35 32.97 28.4 32.37 26.71C32.1 25.95 31.81 25.24 31.52 24.62C31.33 24.19 31.13 23.8 30.96 23.46V24.29C31.01 24.4 31.06 24.51 31.1 24.62C31.39 25.36 31.62 26.05 31.79 26.72Z" fill="#FFC000"/>
<path d="M42.81 34.2L41.66 33.19C41.66 33.19 39.63 34.17 36.9 33.64C35.76 33.42 34.92 33.18 34.1 33.1C33.68 33.06 33.26 33.07 32.81 33.15C32.71 33.17 32.62 33.19 32.52 33.21C32.12 33.31 31.68 33.47 31.19 33.72C30.88 33.87 30.54 34.07 30.17 34.29C30.17 34.29 30.6 33.76 31.43 33.3C31.77 33.11 32.17 32.93 32.65 32.8C32.73 32.78 32.8 32.76 32.88 32.74C33.27 32.65 33.69 32.6 34.16 32.6C34.69 32.6 35.27 32.68 35.9 32.86C39.6 33.91 41.83 32.5 41.83 32.5L42.81 34.2Z" fill="url(#paint29_linear_1_99)"/>
<path d="M43.17 34.94C42.68 35.22 42.17 35.45 41.62 35.62C41.08 35.78 40.5 35.87 39.93 35.89C38.79 35.93 37.66 35.73 36.57 35.45C36.3 35.37 36.03 35.3 35.76 35.21L35.36 35.08L35.16 35.02L34.97 34.97C34.59 34.85 34.19 34.81 33.78 34.82C33.66 34.82 33.54 34.83 33.42 34.85C33.06 34.89 32.7 34.99 32.34 35.12C32.19 35.18 32.03 35.24 31.88 35.31C31.76 35.37 31.63 35.43 31.51 35.5C31.15 35.7 30.8 35.92 30.48 36.18C30.83 35.74 31.26 35.38 31.74 35.07C31.97 34.93 32.21 34.79 32.46 34.69C32.74 34.57 33.03 34.47 33.34 34.41C33.52 34.37 33.69 34.35 33.88 34.33C34.29 34.3 34.7 34.34 35.11 34.44L35.33 34.49L35.53 34.55L35.92 34.67C36.18 34.75 36.45 34.82 36.72 34.89C36.98 34.97 37.25 35.02 37.52 35.09C37.79 35.15 38.05 35.2 38.32 35.25C38.85 35.36 39.39 35.41 39.94 35.44C40.48 35.46 41.02 35.44 41.56 35.35C42.09 35.26 42.63 35.1 43.17 34.94Z" fill="url(#paint30_linear_1_99)"/>
<path d="M29.5 34.29C29.5 34.29 27.46 31.81 23.76 32.86C20.06 33.91 17.83 32.5 17.83 32.5L16.85 34.19L18 33.18C18 33.18 20.03 34.16 22.76 33.63C25.49 33.1 26.53 32.45 29.5 34.29Z" fill="url(#paint31_linear_1_99)"/>
<path d="M29.16 36.16C28.81 35.72 28.37 35.36 27.89 35.04C27.41 34.74 26.87 34.5 26.3 34.38C25.73 34.26 25.12 34.28 24.54 34.42L24.32 34.47L24.12 34.53L23.73 34.65C23.47 34.73 23.2 34.8 22.94 34.87C22.68 34.95 22.41 35 22.14 35.07C21.87 35.13 21.61 35.18 21.34 35.23C20.81 35.34 20.27 35.39 19.73 35.42C19.19 35.44 18.65 35.42 18.11 35.33C17.57 35.25 17.04 35.09 16.5 34.93C16.99 35.21 17.5 35.44 18.04 35.61C18.58 35.77 19.16 35.86 19.73 35.88C20.87 35.92 22 35.72 23.09 35.43C23.36 35.35 23.63 35.28 23.9 35.19L24.3 35.06L24.5 35L24.69 34.95C25.18 34.8 25.71 34.77 26.23 34.83C26.75 34.9 27.27 35.06 27.76 35.29C28.25 35.53 28.72 35.82 29.16 36.16Z" fill="url(#paint32_linear_1_99)"/>
<path d="M30.94 33.25V36.33H29.15C29.15 36.33 29.17 34.96 29.41 34.36C29.65 33.76 30.94 33.25 30.94 33.25Z" fill="#4472C4"/>
<path d="M29.9 5.79999C15.18 5.79999 3.20001 17.78 3.20001 32.5C3.20001 46.06 13.36 57.29 26.46 58.98C27.59 59.13 28.74 59.2 29.9 59.2C30.09 59.2 30.28 59.2 30.46 59.19C31.06 59.18 31.65 59.15 32.24 59.09C32.39 59.08 32.54 59.06 32.69 59.05C33.62 58.95 34.53 58.81 35.43 58.62C47.51 56.07 56.6 45.32 56.6 32.49C56.6 17.78 44.62 5.79999 29.9 5.79999ZM36.32 55.87C35.49 56.1 34.64 56.28 33.78 56.42C33.29 56.5 32.8 56.57 32.3 56.61C31.51 56.69 30.71 56.73 29.9 56.73C29.63 56.73 29.36 56.72 29.09 56.72C28.65 56.71 28.2 56.68 27.77 56.64C15.4 55.56 5.67001 45.14 5.67001 32.5C5.67001 19.13 16.54 8.25999 29.91 8.25999C43.27 8.25999 54.15 19.13 54.15 32.5C54.13 43.64 46.58 53.05 36.32 55.87Z" fill="url(#paint33_linear_1_99)"/>
<path d="M31.73 18.36C31.79 18.47 31.83 18.59 31.86 18.72C31.9 18.84 31.92 18.97 31.94 19.1C31.98 19.36 31.98 19.62 31.92 19.88C31.86 20.14 31.75 20.4 31.58 20.62C31.41 20.83 31.19 21.01 30.95 21.14C30.89 21.17 30.83 21.2 30.77 21.23C30.71 21.26 30.65 21.28 30.58 21.31C30.52 21.33 30.45 21.36 30.39 21.38C30.32 21.4 30.26 21.41 30.19 21.43C29.92 21.48 29.62 21.49 29.34 21.43C29.06 21.37 28.78 21.25 28.55 21.07C28.32 20.9 28.13 20.67 27.98 20.43C27.69 19.94 27.55 19.35 27.66 18.76C27.69 18.61 27.73 18.47 27.79 18.33C27.82 18.26 27.86 18.19 27.9 18.13L27.96 18.03C27.98 18 28 17.98 28.02 17.95C28.17 17.74 28.32 17.54 28.47 17.34C28.76 16.94 29.05 16.54 29.18 16.14C29.25 15.94 29.28 15.74 29.25 15.54C29.22 15.34 29.14 15.15 29.03 14.95L28.63 14.23L29.38 14.52C29.45 14.55 29.5 14.57 29.56 14.6C29.62 14.63 29.68 14.66 29.73 14.69C29.84 14.75 29.95 14.81 30.06 14.89C30.27 15.03 30.47 15.2 30.64 15.4C30.81 15.6 30.96 15.84 31.03 16.11C31.1 16.38 31.09 16.66 31.02 16.92C31 16.99 30.98 17.04 30.97 17.1L30.92 17.27C30.88 17.38 30.85 17.5 30.81 17.61L30.57 18.28C30.49 18.5 30.41 18.72 30.36 18.95C30.33 19.06 30.32 19.18 30.31 19.29C30.31 19.41 30.32 19.52 30.34 19.64C30.25 19.42 30.22 19.17 30.23 18.93C30.25 18.69 30.29 18.45 30.34 18.22L30.5 17.53L30.58 17.19L30.62 17.02C30.63 16.96 30.65 16.9 30.65 16.85C30.72 16.43 30.57 16.05 30.27 15.75C30.12 15.6 29.95 15.47 29.76 15.36C29.67 15.31 29.57 15.25 29.47 15.21C29.42 15.19 29.37 15.16 29.32 15.14C29.27 15.12 29.22 15.1 29.18 15.09L29.52 14.66C29.67 14.9 29.8 15.17 29.85 15.47C29.91 15.77 29.87 16.08 29.78 16.36C29.69 16.64 29.57 16.89 29.43 17.11C29.29 17.34 29.14 17.55 28.99 17.76L28.54 18.36C28.52 18.38 28.5 18.41 28.49 18.43L28.45 18.49C28.42 18.53 28.4 18.58 28.38 18.62C28.34 18.71 28.31 18.81 28.28 18.91C28.2 19.31 28.28 19.77 28.49 20.15C28.7 20.53 29.04 20.83 29.45 20.95C29.66 21.01 29.88 21.02 30.1 21C30.32 20.97 30.55 20.91 30.76 20.82C31.18 20.64 31.54 20.31 31.69 19.86C31.77 19.64 31.81 19.39 31.81 19.15C31.82 18.86 31.8 18.61 31.73 18.36Z" fill="#FFC000"/>
<path d="M30.94 21.52V34.17C30.32 35.21 29.55 36.02 28.85 36.62V21.58C29 21.65 29.17 21.71 29.34 21.75C29.41 21.77 29.48 21.78 29.55 21.78C29.67 21.89 29.78 22.01 29.89 22.13C29.92 22.16 29.95 22.2 29.97 22.23C29.97 22.23 30.04 22.15 30.07 22C30.09 21.94 30.1 21.86 30.1 21.78C30.15 21.77 30.21 21.77 30.26 21.75C30.33 21.73 30.41 21.72 30.48 21.7C30.55 21.68 30.62 21.65 30.69 21.63C30.76 21.6 30.83 21.57 30.89 21.54C30.91 21.53 30.93 21.53 30.94 21.52Z" fill="#4472C4"/>
<path d="M30.94 36.04V37.15C30.67 37.17 30.39 37.19 30.11 37.19C30.39 36.86 30.67 36.47 30.94 36.04Z" fill="#D4A21B"/>
<path d="M31.79 26.72H23.98V24.63H31.08C31.39 25.36 31.62 26.05 31.79 26.72Z" fill="#4472C4"/>
<path d="M35.8 24.63V26.72H32.35C32.08 25.96 31.79 25.25 31.5 24.63H35.8Z" fill="#4472C4"/>
<path d="M30.94 23.46V24.29C30.64 23.61 30.28 22.89 29.85 22.15L29.89 22.12C29.92 22.15 29.95 22.19 29.97 22.22C29.97 22.22 30.04 22.14 30.07 21.99L30.1 21.97C30.11 21.98 30.46 22.54 30.94 23.46Z" fill="#4472C4"/>
<path d="M30.94 36.04V37.15C30.67 37.17 30.39 37.19 30.11 37.19C30.39 36.86 30.67 36.47 30.94 36.04Z" fill="#D4A21B"/>
<path d="M30.94 36.04V37.15C30.67 37.17 30.39 37.19 30.11 37.19C30.39 36.86 30.67 36.47 30.94 36.04Z" fill="#4472C4"/>
<path d="M29.05 21.33C29.05 21.33 29.7 21.9 29.97 22.23C29.97 22.23 30.15 21.99 30.1 21.78L29.58 21.38L29.05 21.33Z" fill="#FFC000"/>
<path d="M46.23 32.9L43.81 36.04L42.91 37.21L29.9 54.11L16.89 37.21H15.4L29.89 56.03L44.38 37.21L45.28 36.04L46.96 33.86L46.23 32.9ZM42.91 28.59L43.81 29.76H48.65L46.97 31.94L47.71 32.9L51.03 28.58H42.91V28.59ZM13.56 32.9L12.82 31.94L11.14 29.76H14.51L15.41 28.59H8.76001L12.08 32.91L12.82 33.87L14.5 36.05H15.98L13.56 32.9Z" fill="#FFC000"/>
<path d="M45.29 29.76L44.39 28.59L29.9 9.76996L15.4 28.59H16.88L29.89 11.69L42.9 28.59L43.8 29.76L46.22 32.9L46.96 31.94L45.29 29.76ZM47.71 32.9L46.97 33.86L48.65 36.04H15.98L16.88 37.21H51.03L47.71 32.9ZM11.14 36.05L12.82 33.87L13.56 32.91L15.98 29.77H14.5L12.82 31.95L12.08 32.91L8.76001 37.23H15.41L14.51 36.06H11.14V36.05Z" fill="#4472C4"/>
<path d="M16.88 37.22H15.4L14.5 36.05H15.98L16.88 37.22Z" fill="#FFC000"/>
<path d="M16.88 28.59L15.98 29.76H14.5L15.4 28.59H16.88Z" fill="#FFC000"/>
<defs>
<linearGradient id="paint0_linear_1_99" x1="62.7832" y1="29.1749" x2="190.076" y2="28.7772" gradientUnits="userSpaceOnUse">
<stop stop-color="#C2973B"/>
<stop offset="0.2279" stop-color="#D09F26"/>
<stop offset="0.414" stop-color="#F4C96C"/>
<stop offset="0.586" stop-color="#E2B854"/>
<stop offset="0.7721" stop-color="#FFFFD0"/>
<stop offset="1" stop-color="#EBCA83"/>
</linearGradient>
<linearGradient id="paint1_linear_1_99" x1="62.7834" y1="29.2369" x2="190.076" y2="28.8391" gradientUnits="userSpaceOnUse">
<stop stop-color="#C2973B"/>
<stop offset="0.2279" stop-color="#D09F26"/>
<stop offset="0.414" stop-color="#F4C96C"/>
<stop offset="0.586" stop-color="#E2B854"/>
<stop offset="0.7721" stop-color="#FFFFD0"/>
<stop offset="1" stop-color="#EBCA83"/>
</linearGradient>
<linearGradient id="paint2_linear_1_99" x1="62.7831" y1="29.1177" x2="190.076" y2="28.7199" gradientUnits="userSpaceOnUse">
<stop stop-color="#C2973B"/>
<stop offset="0.2279" stop-color="#D09F26"/>
<stop offset="0.414" stop-color="#F4C96C"/>
<stop offset="0.586" stop-color="#E2B854"/>
<stop offset="0.7721" stop-color="#FFFFD0"/>
<stop offset="1" stop-color="#EBCA83"/>
</linearGradient>
<linearGradient id="paint3_linear_1_99" x1="62.7838" y1="29.393" x2="190.077" y2="28.9953" gradientUnits="userSpaceOnUse">
<stop stop-color="#C2973B"/>
<stop offset="0.2279" stop-color="#D09F26"/>
<stop offset="0.414" stop-color="#F4C96C"/>
<stop offset="0.586" stop-color="#E2B854"/>
<stop offset="0.7721" stop-color="#FFFFD0"/>
<stop offset="1" stop-color="#EBCA83"/>
</linearGradient>
<linearGradient id="paint4_linear_1_99" x1="62.784" y1="29.4353" x2="190.077" y2="29.0375" gradientUnits="userSpaceOnUse">
<stop stop-color="#C2973B"/>
<stop offset="0.2279" stop-color="#D09F26"/>
<stop offset="0.414" stop-color="#F4C96C"/>
<stop offset="0.586" stop-color="#E2B854"/>
<stop offset="0.7721" stop-color="#FFFFD0"/>
<stop offset="1" stop-color="#EBCA83"/>
</linearGradient>
<linearGradient id="paint5_linear_1_99" x1="62.7844" y1="29.5944" x2="190.077" y2="29.1966" gradientUnits="userSpaceOnUse">
<stop stop-color="#C2973B"/>
<stop offset="0.2279" stop-color="#D09F26"/>
<stop offset="0.414" stop-color="#F4C96C"/>
<stop offset="0.586" stop-color="#E2B854"/>
<stop offset="0.7721" stop-color="#FFFFD0"/>
<stop offset="1" stop-color="#EBCA83"/>
</linearGradient>
<linearGradient id="paint6_linear_1_99" x1="48.5803" y1="43.7202" x2="203.257" y2="43.2369" gradientUnits="userSpaceOnUse">
<stop stop-color="#C2973B"/>
<stop offset="0.2279" stop-color="#D09F26"/>
<stop offset="0.414" stop-color="#F4C96C"/>
<stop offset="0.586" stop-color="#E2B854"/>
<stop offset="0.7721" stop-color="#FFFFD0"/>
<stop offset="1" stop-color="#EBCA83"/>
</linearGradient>
<linearGradient id="paint7_linear_1_99" x1="48.5804" y1="43.7413" x2="203.257" y2="43.258" gradientUnits="userSpaceOnUse">
<stop stop-color="#C2973B"/>
<stop offset="0.2279" stop-color="#D09F26"/>
<stop offset="0.414" stop-color="#F4C96C"/>
<stop offset="0.586" stop-color="#E2B854"/>
<stop offset="0.7721" stop-color="#FFFFD0"/>
<stop offset="1" stop-color="#EBCA83"/>
</linearGradient>
<linearGradient id="paint8_linear_1_99" x1="48.5804" y1="43.7614" x2="203.257" y2="43.278" gradientUnits="userSpaceOnUse">
<stop stop-color="#C2973B"/>
<stop offset="0.2279" stop-color="#D09F26"/>
<stop offset="0.414" stop-color="#F4C96C"/>
<stop offset="0.586" stop-color="#E2B854"/>
<stop offset="0.7721" stop-color="#FFFFD0"/>
<stop offset="1" stop-color="#EBCA83"/>
</linearGradient>
<linearGradient id="paint9_linear_1_99" x1="48.5805" y1="43.7721" x2="203.257" y2="43.2888" gradientUnits="userSpaceOnUse">
<stop stop-color="#C2973B"/>
<stop offset="0.2279" stop-color="#D09F26"/>
<stop offset="0.414" stop-color="#F4C96C"/>
<stop offset="0.586" stop-color="#E2B854"/>
<stop offset="0.7721" stop-color="#FFFFD0"/>
<stop offset="1" stop-color="#EBCA83"/>
</linearGradient>
<linearGradient id="paint10_linear_1_99" x1="48.5805" y1="43.7917" x2="203.257" y2="43.3083" gradientUnits="userSpaceOnUse">
<stop stop-color="#C2973B"/>
<stop offset="0.2279" stop-color="#D09F26"/>
<stop offset="0.414" stop-color="#F4C96C"/>
<stop offset="0.586" stop-color="#E2B854"/>
<stop offset="0.7721" stop-color="#FFFFD0"/>
<stop offset="1" stop-color="#EBCA83"/>
</linearGradient>
<linearGradient id="paint11_linear_1_99" x1="48.5804" y1="43.8089" x2="203.257" y2="43.3255" gradientUnits="userSpaceOnUse">
<stop stop-color="#C2973B"/>
<stop offset="0.2279" stop-color="#D09F26"/>
<stop offset="0.414" stop-color="#F4C96C"/>
<stop offset="0.586" stop-color="#E2B854"/>
<stop offset="0.7721" stop-color="#FFFFD0"/>
<stop offset="1" stop-color="#EBCA83"/>
</linearGradient>
<linearGradient id="paint12_linear_1_99" x1="48.5807" y1="43.8367" x2="203.257" y2="43.3534" gradientUnits="userSpaceOnUse">
<stop stop-color="#C2973B"/>
<stop offset="0.2279" stop-color="#D09F26"/>
<stop offset="0.414" stop-color="#F4C96C"/>
<stop offset="0.586" stop-color="#E2B854"/>
<stop offset="0.7721" stop-color="#FFFFD0"/>
<stop offset="1" stop-color="#EBCA83"/>
</linearGradient>
<linearGradient id="paint13_linear_1_99" x1="48.5807" y1="43.8528" x2="203.257" y2="43.3694" gradientUnits="userSpaceOnUse">
<stop stop-color="#C2973B"/>
<stop offset="0.2279" stop-color="#D09F26"/>
<stop offset="0.414" stop-color="#F4C96C"/>
<stop offset="0.586" stop-color="#E2B854"/>
<stop offset="0.7721" stop-color="#FFFFD0"/>
<stop offset="1" stop-color="#EBCA83"/>
</linearGradient>
<linearGradient id="paint14_linear_1_99" x1="48.5807" y1="43.8687" x2="203.257" y2="43.3853" gradientUnits="userSpaceOnUse">
<stop stop-color="#C2973B"/>
<stop offset="0.2279" stop-color="#D09F26"/>
<stop offset="0.414" stop-color="#F4C96C"/>
<stop offset="0.586" stop-color="#E2B854"/>
<stop offset="0.7721" stop-color="#FFFFD0"/>
<stop offset="1" stop-color="#EBCA83"/>
</linearGradient>
<linearGradient id="paint15_linear_1_99" x1="48.5808" y1="43.9006" x2="203.257" y2="43.4172" gradientUnits="userSpaceOnUse">
<stop stop-color="#C2973B"/>
<stop offset="0.2279" stop-color="#D09F26"/>
<stop offset="0.414" stop-color="#F4C96C"/>
<stop offset="0.586" stop-color="#E2B854"/>
<stop offset="0.7721" stop-color="#FFFFD0"/>
<stop offset="1" stop-color="#EBCA83"/>
</linearGradient>
<linearGradient id="paint16_linear_1_99" x1="48.581" y1="43.9201" x2="203.257" y2="43.4367" gradientUnits="userSpaceOnUse">
<stop stop-color="#C2973B"/>
<stop offset="0.2279" stop-color="#D09F26"/>
<stop offset="0.414" stop-color="#F4C96C"/>
<stop offset="0.586" stop-color="#E2B854"/>
<stop offset="0.7721" stop-color="#FFFFD0"/>
<stop offset="1" stop-color="#EBCA83"/>
</linearGradient>
<linearGradient id="paint17_linear_1_99" x1="48.5809" y1="43.9379" x2="203.257" y2="43.4545" gradientUnits="userSpaceOnUse">
<stop stop-color="#C2973B"/>
<stop offset="0.2279" stop-color="#D09F26"/>
<stop offset="0.414" stop-color="#F4C96C"/>
<stop offset="0.586" stop-color="#E2B854"/>
<stop offset="0.7721" stop-color="#FFFFD0"/>
<stop offset="1" stop-color="#EBCA83"/>
</linearGradient>
<linearGradient id="paint18_linear_1_99" x1="48.5811" y1="43.9494" x2="203.257" y2="43.4661" gradientUnits="userSpaceOnUse">
<stop stop-color="#C2973B"/>
<stop offset="0.2279" stop-color="#D09F26"/>
<stop offset="0.414" stop-color="#F4C96C"/>
<stop offset="0.586" stop-color="#E2B854"/>
<stop offset="0.7721" stop-color="#FFFFD0"/>
<stop offset="1" stop-color="#EBCA83"/>
</linearGradient>
<linearGradient id="paint19_linear_1_99" x1="48.5811" y1="43.97" x2="203.258" y2="43.4867" gradientUnits="userSpaceOnUse">
<stop stop-color="#C2973B"/>
<stop offset="0.2279" stop-color="#D09F26"/>
<stop offset="0.414" stop-color="#F4C96C"/>
<stop offset="0.586" stop-color="#E2B854"/>
<stop offset="0.7721" stop-color="#FFFFD0"/>
<stop offset="1" stop-color="#EBCA83"/>
</linearGradient>
<linearGradient id="paint20_linear_1_99" x1="48.581" y1="43.9863" x2="203.258" y2="43.5029" gradientUnits="userSpaceOnUse">
<stop stop-color="#C2973B"/>
<stop offset="0.2279" stop-color="#D09F26"/>
<stop offset="0.414" stop-color="#F4C96C"/>
<stop offset="0.586" stop-color="#E2B854"/>
<stop offset="0.7721" stop-color="#FFFFD0"/>
<stop offset="1" stop-color="#EBCA83"/>
</linearGradient>
<linearGradient id="paint21_linear_1_99" x1="48.5812" y1="44.012" x2="203.258" y2="43.5286" gradientUnits="userSpaceOnUse">
<stop stop-color="#C2973B"/>
<stop offset="0.2279" stop-color="#D09F26"/>
<stop offset="0.414" stop-color="#F4C96C"/>
<stop offset="0.586" stop-color="#E2B854"/>
<stop offset="0.7721" stop-color="#FFFFD0"/>
<stop offset="1" stop-color="#EBCA83"/>
</linearGradient>
<linearGradient id="paint22_linear_1_99" x1="48.5802" y1="44.0281" x2="203.258" y2="43.5447" gradientUnits="userSpaceOnUse">
<stop stop-color="#C2973B"/>
<stop offset="0.2279" stop-color="#D09F26"/>
<stop offset="0.414" stop-color="#F4C96C"/>
<stop offset="0.586" stop-color="#E2B854"/>
<stop offset="0.7721" stop-color="#FFFFD0"/>
<stop offset="1" stop-color="#EBCA83"/>
</linearGradient>
<linearGradient id="paint23_linear_1_99" x1="48.5813" y1="44.0429" x2="203.258" y2="43.5595" gradientUnits="userSpaceOnUse">
<stop stop-color="#C2973B"/>
<stop offset="0.2279" stop-color="#D09F26"/>
<stop offset="0.414" stop-color="#F4C96C"/>
<stop offset="0.586" stop-color="#E2B854"/>
<stop offset="0.7721" stop-color="#FFFFD0"/>
<stop offset="1" stop-color="#EBCA83"/>
</linearGradient>
<linearGradient id="paint24_linear_1_99" x1="48.5823" y1="44.0577" x2="203.258" y2="43.5743" gradientUnits="userSpaceOnUse">
<stop stop-color="#C2973B"/>
<stop offset="0.2279" stop-color="#D09F26"/>
<stop offset="0.414" stop-color="#F4C96C"/>
<stop offset="0.586" stop-color="#E2B854"/>
<stop offset="0.7721" stop-color="#FFFFD0"/>
<stop offset="1" stop-color="#EBCA83"/>
</linearGradient>
<linearGradient id="paint25_linear_1_99" x1="48.5812" y1="44.0719" x2="203.258" y2="43.5885" gradientUnits="userSpaceOnUse">
<stop stop-color="#C2973B"/>
<stop offset="0.2279" stop-color="#D09F26"/>
<stop offset="0.414" stop-color="#F4C96C"/>
<stop offset="0.586" stop-color="#E2B854"/>
<stop offset="0.7721" stop-color="#FFFFD0"/>
<stop offset="1" stop-color="#EBCA83"/>
</linearGradient>
<linearGradient id="paint26_linear_1_99" x1="48.5817" y1="44.0836" x2="203.258" y2="43.6002" gradientUnits="userSpaceOnUse">
<stop stop-color="#C2973B"/>
<stop offset="0.2279" stop-color="#D09F26"/>
<stop offset="0.414" stop-color="#F4C96C"/>
<stop offset="0.586" stop-color="#E2B854"/>
<stop offset="0.7721" stop-color="#FFFFD0"/>
<stop offset="1" stop-color="#EBCA83"/>
</linearGradient>
<linearGradient id="paint27_linear_1_99" x1="48.5816" y1="44.1024" x2="203.258" y2="43.619" gradientUnits="userSpaceOnUse">
<stop stop-color="#C2973B"/>
<stop offset="0.2279" stop-color="#D09F26"/>
<stop offset="0.414" stop-color="#F4C96C"/>
<stop offset="0.586" stop-color="#E2B854"/>
<stop offset="0.7721" stop-color="#FFFFD0"/>
<stop offset="1" stop-color="#EBCA83"/>
</linearGradient>
<linearGradient id="paint28_linear_1_99" x1="48.5811" y1="44.116" x2="203.258" y2="43.6326" gradientUnits="userSpaceOnUse">
<stop stop-color="#C2973B"/>
<stop offset="0.2279" stop-color="#D09F26"/>
<stop offset="0.414" stop-color="#F4C96C"/>
<stop offset="0.586" stop-color="#E2B854"/>
<stop offset="0.7721" stop-color="#FFFFD0"/>
<stop offset="1" stop-color="#EBCA83"/>
</linearGradient>
<linearGradient id="paint29_linear_1_99" x1="-3.52792" y1="33.3943" x2="62.0166" y2="33.3943" gradientUnits="userSpaceOnUse">
<stop stop-color="#C2973B"/>
<stop offset="0.2279" stop-color="#D09F26"/>
<stop offset="0.414" stop-color="#F4C96C"/>
<stop offset="0.586" stop-color="#E2B854"/>
<stop offset="0.7721" stop-color="#FFFFD0"/>
<stop offset="1" stop-color="#EBCA83"/>
</linearGradient>
<linearGradient id="paint30_linear_1_99" x1="-3.5316" y1="35.2337" x2="62.0201" y2="35.2337" gradientUnits="userSpaceOnUse">
<stop stop-color="#C2973B"/>
<stop offset="0.2279" stop-color="#D09F26"/>
<stop offset="0.414" stop-color="#F4C96C"/>
<stop offset="0.586" stop-color="#E2B854"/>
<stop offset="0.7721" stop-color="#FFFFD0"/>
<stop offset="1" stop-color="#EBCA83"/>
</linearGradient>
<linearGradient id="paint31_linear_1_99" x1="-3.53083" y1="33.3933" x2="62.0185" y2="33.3933" gradientUnits="userSpaceOnUse">
<stop stop-color="#C2973B"/>
<stop offset="0.2279" stop-color="#D09F26"/>
<stop offset="0.414" stop-color="#F4C96C"/>
<stop offset="0.586" stop-color="#E2B854"/>
<stop offset="0.7721" stop-color="#FFFFD0"/>
<stop offset="1" stop-color="#EBCA83"/>
</linearGradient>
<linearGradient id="paint32_linear_1_99" x1="-3.53081" y1="35.2336" x2="62.0185" y2="35.2336" gradientUnits="userSpaceOnUse">
<stop stop-color="#C2973B"/>
<stop offset="0.2279" stop-color="#D09F26"/>
<stop offset="0.414" stop-color="#F4C96C"/>
<stop offset="0.586" stop-color="#E2B854"/>
<stop offset="0.7721" stop-color="#FFFFD0"/>
<stop offset="1" stop-color="#EBCA83"/>
</linearGradient>
<linearGradient id="paint33_linear_1_99" x1="3.19011" y1="32.5" x2="56.5999" y2="32.5" gradientUnits="userSpaceOnUse">
<stop stop-color="#C2973B"/>
<stop offset="0.2279" stop-color="#D09F26"/>
<stop offset="0.414" stop-color="#F4C96C"/>
<stop offset="0.586" stop-color="#E2B854"/>
<stop offset="0.7721" stop-color="#FFFFD0"/>
<stop offset="1" stop-color="#EBCA83"/>
</linearGradient>
</defs>
</svg>
