<svg width="25" height="25" viewBox="0 0 25 25" fill="none" xmlns="http://www.w3.org/2000/svg">
<path d="M12.66 0.329956C19.31 0.349956 24.7 5.77003 24.67 12.41C24.64 19.08 19.22 24.53 12.4 24.41C5.80001 24.29 0.47 18.89 0.59 12.14C0.72 5.56001 6.07001 0.339956 12.66 0.329956ZM5.44001 9.06995C5.43001 9.24995 5.42 9.38001 5.42 9.51001C5.42 11.69 5.42 13.8801 5.42 16.0601C5.42 16.8501 5.98 17.39 6.79 17.39C10.69 17.39 14.6 17.39 18.5 17.39C19.27 17.39 19.83 16.84 19.84 16.08C19.85 13.84 19.84 11.61 19.84 9.37C19.84 9.29 19.83 9.19995 19.82 9.06995C19.66 9.16995 19.54 9.23995 19.42 9.31995C17.32 10.6299 15.23 11.93 13.14 13.24C12.8 13.46 12.49 13.46 12.14 13.24C10.75 12.36 9.34001 11.49 7.94001 10.62C7.12001 10.12 6.31001 9.60995 5.44001 9.06995ZM19.66 9C19.64 8.95 19.64 8.93994 19.64 8.93994C17.35 7.50994 15.07 6.09003 12.79 4.66003C12.66 4.58003 12.57 4.61005 12.47 4.68005C10.25 6.07005 8.03 7.44996 5.81 8.82996C5.74 8.86996 5.68 8.92 5.57 9C10.3 9 14.97 9 19.66 9Z" fill="white"/>
</svg>
